<?xml version="1.0" encoding="utf-8"?>
<!-- Generator: Adobe Illustrator 15.1.0, SVG Export Plug-In . SVG Version: 6.00 Build 0)  -->
<!DOCTYPE svg PUBLIC "-//W3C//DTD SVG 1.1//EN" "http://www.w3.org/Graphics/SVG/1.1/DTD/svg11.dtd">
<svg version="1.1" id="Layer_1" xmlns="http://www.w3.org/2000/svg" xmlns:xlink="http://www.w3.org/1999/xlink" x="0px" y="0px"
	 width="134.535px" height="33.43px" viewBox="0 0 134.535 33.43" enable-background="new 0 0 134.535 33.43" xml:space="preserve">
<path fill="#053954" d="M28.761,28.725h-7.512c-0.462,0-0.84-0.378-0.84-0.84v-7.513c0-0.462,0.378-0.84,0.84-0.84h7.512
	c0.462,0,0.84,0.378,0.84,0.84v7.513C29.602,28.347,29.223,28.725,28.761,28.725"/>
<path fill="#053954" d="M31.368,18.144H21.226c-0.462,0-0.84-0.378-0.84-0.84V7.161c0-0.462,0.378-0.84,0.84-0.84h10.143
	c0.462,0,0.84,0.378,0.84,0.84v10.143C32.208,17.765,31.83,18.144,31.368,18.144"/>
<path fill="#053954" d="M18.087,31.356H7.944c-0.462,0-0.839-0.379-0.839-0.84V20.373c0-0.462,0.377-0.84,0.839-0.84h10.143
	c0.462,0,0.84,0.378,0.84,0.84v10.143C18.927,30.977,18.549,31.356,18.087,31.356"/>
<path fill="#053954" d="M18.93,2.649c0-0.518-0.419-0.938-0.938-0.938H3.446c-0.518,0-0.938,0.42-0.938,0.938v14.546
	c0,0.518,0.419,0.938,0.938,0.938h14.546c0.518,0,0.938-0.419,0.938-0.938V2.649z M13.252,5.702h-3.53v3.376h3.53v1.381h-3.53v3.53
	h3.53v1.381H8.188V4.627h5.064V5.702z"/>
<polygon fill="#053954" points="41.98,7.823 51.187,7.823 51.187,9.654 43.97,9.654 43.97,16.5 51.187,16.5 51.187,18.331 
	43.97,18.331 43.97,25.627 51.187,25.627 51.187,27.458 41.98,27.458 "/>
<rect x="54.688" y="7.823" fill="#053954" width="1.778" height="19.635"/>
<path fill="#053954" d="M61.322,20.771c0,2.999,1.221,5.36,3.662,5.36c1.751,0,2.866-1.194,3.237-2.865h1.751
	c-0.266,1.486-0.929,2.626-1.805,3.396c-0.875,0.743-1.963,1.141-3.184,1.141c-3.98,0-5.519-3.82-5.519-7.535
	c0-4.484,2.069-7.589,5.466-7.589c1.698,0,3.024,0.77,3.874,2.043c1.168,1.724,1.354,3.953,1.327,6.049H61.322z M68.327,19.207
	c-0.053-2.999-1.3-5.016-3.476-5.016c-2.096,0-3.476,2.149-3.529,5.016H68.327z"/>
<path fill="#053954" d="M72.917,13.024h1.698c0,0.743,0,1.513-0.053,2.361c0.743-2.255,2.361-2.707,3.661-2.707
	c1.008,0,1.857,0.318,2.521,0.981c0.397,0.425,0.689,1.063,0.796,1.726c0.265-0.796,0.663-1.379,1.193-1.831
	c0.716-0.53,1.619-0.875,2.653-0.875c1.699,0,2.787,0.85,3.37,1.858c0.531,0.875,0.664,2.494,0.664,3.953v8.968h-1.778v-8.836
	c0-1.035-0.053-2.016-0.292-2.68c-0.318-0.982-1.193-1.513-2.202-1.513c-0.823,0-1.646,0.213-2.335,1.168
	c-0.61,0.875-0.77,2.096-0.77,3.158v8.703h-1.778v-8.756c0-1.141-0.027-1.938-0.292-2.76c-0.292-0.955-1.168-1.513-2.177-1.513
	c-0.902,0-1.671,0.266-2.335,1.115c-0.636,0.901-0.77,2.124-0.77,3.264v8.65h-1.777V13.024z"/>
<path fill="#053954" d="M94.038,20.771c0,2.999,1.22,5.36,3.662,5.36c1.751,0,2.865-1.194,3.237-2.865h1.751
	c-0.265,1.486-0.928,2.626-1.803,3.396c-0.876,0.743-1.964,1.141-3.185,1.141c-3.98,0-5.52-3.82-5.52-7.535
	c0-4.484,2.07-7.589,5.466-7.589c1.698,0,3.025,0.77,3.875,2.043c1.167,1.724,1.353,3.953,1.327,6.049H94.038z M101.042,19.207
	c-0.053-2.999-1.3-5.016-3.476-5.016c-2.096,0-3.476,2.149-3.529,5.016H101.042z"/>
<path fill="#053954" d="M105.579,13.024h1.592c0,0.822,0,1.565-0.053,2.467c0.743-2.042,2.415-2.812,4.086-2.812
	c2.468,0,4.14,1.433,4.14,4.936v9.844h-1.777v-9.287c0-1.459-0.213-3.742-2.761-3.742c-2.096,0-3.449,1.459-3.449,4.484v8.544
	h-1.778V13.024z"/>
<polygon fill="#053954" points="119.456,14.696 117.439,14.696 117.439,13.024 119.456,13.024 119.456,8.46 121.234,8.46 
	121.234,13.024 123.224,13.024 123.224,14.696 121.234,14.696 121.234,27.458 119.456,27.458 "/>
<path fill="#053954" d="M131.21,16.764c0-1.83-0.955-2.493-2.335-2.493c-1.22,0-2.096,0.875-2.096,2.149
	c0,1.618,1.353,2.202,3.104,2.733c1.592,0.477,3.45,1.458,3.45,4.352c0,2.547-1.831,4.298-4.299,4.298
	c-2.627,0-4.378-1.565-4.511-4.59h1.751c0.027,1.963,1.168,2.945,2.76,2.945c1.566,0,2.441-1.062,2.441-2.521
	c0-1.751-1.221-2.441-3.158-3.051c-1.83-0.611-3.396-1.539-3.396-4.113c0-2.309,1.672-3.794,4.033-3.794
	c2.467,0,3.927,1.406,4.007,4.085H131.21z"/>
</svg>
